<svg width="40" height="40" viewBox="0 0 40 40" fill="none" xmlns="http://www.w3.org/2000/svg">
<g filter="url(#filter0_i_0_1)">
<circle cx="20" cy="20" r="20" fill="url(#paint0_linear_0_1)" fill-opacity="0.34"/>
</g>
<circle cx="20" cy="20" r="19" stroke="white" stroke-width="2"/>
<path d="M7.40341 24L5.40909 17.4545H6.46591L7.88068 22.4659H7.94886L9.34659 17.4545H10.4205L11.8011 22.4489H11.8693L13.2841 17.4545H14.3409L12.3466 24H11.358L9.92614 18.9716H9.82386L8.39205 24H7.40341ZM17.1534 24L15.1591 17.4545H16.2159L17.6307 22.4659H17.6989L19.0966 17.4545H20.1705L21.5511 22.4489H21.6193L23.0341 17.4545H24.0909L22.0966 24H21.108L19.6761 18.9716H19.5739L18.142 24H17.1534ZM26.9034 24L24.9091 17.4545H25.9659L27.3807 22.4659H27.4489L28.8466 17.4545H29.9205L31.3011 22.4489H31.3693L32.7841 17.4545H33.8409L31.8466 24H30.858L29.4261 18.9716H29.3239L27.892 24H26.9034Z" fill="#0E184D"/>
<defs>
<filter id="filter0_i_0_1" x="0" y="0" width="40" height="44" filterUnits="userSpaceOnUse" color-interpolation-filters="sRGB">
<feFlood flood-opacity="0" result="BackgroundImageFix"/>
<feBlend mode="normal" in="SourceGraphic" in2="BackgroundImageFix" result="shape"/>
<feColorMatrix in="SourceAlpha" type="matrix" values="0 0 0 0 0 0 0 0 0 0 0 0 0 0 0 0 0 0 127 0" result="hardAlpha"/>
<feOffset dy="4"/>
<feGaussianBlur stdDeviation="2"/>
<feComposite in2="hardAlpha" operator="arithmetic" k2="-1" k3="1"/>
<feColorMatrix type="matrix" values="0 0 0 0 0 0 0 0 0 0 0 0 0 0 0 0 0 0 0.25 0"/>
<feBlend mode="normal" in2="shape" result="effect1_innerShadow_0_1"/>
</filter>
<linearGradient id="paint0_linear_0_1" x1="20" y1="0" x2="20" y2="40" gradientUnits="userSpaceOnUse">
<stop stop-color="#938FBD" stop-opacity="0.56"/>
<stop offset="1" stop-color="#1A1976"/>
</linearGradient>
</defs>
</svg>
